<svg width="48" height="48" viewBox="0 0 48 48" fill="none" xmlns="http://www.w3.org/2000/svg"><path fill="#fff" d="M0 0h48v48H0z"/><mask id="a" fill="#fff"><path fill-rule="evenodd" clip-rule="evenodd" d="M7.429 16.275A6 6 0 0 0 5 21.096V39a5 5 0 0 0 5 5h28a5 5 0 0 0 5-5V21.096a6 6 0 0 0-2.429-4.82L39 15.11V9a1 1 0 0 0-1-1h-5a1 1 0 0 0-1 1v.926l-5.617-4.161a4.003 4.003 0 0 0-4.765 0l-14.19 10.51z"/></mask><path fill-rule="evenodd" clip-rule="evenodd" d="M7.429 16.275A6 6 0 0 0 5 21.096V39a5 5 0 0 0 5 5h28a5 5 0 0 0 5-5V21.096a6 6 0 0 0-2.429-4.82L39 15.11V9a1 1 0 0 0-1-1h-5a1 1 0 0 0-1 1v.926l-5.617-4.161a4.003 4.003 0 0 0-4.765 0l-14.19 10.51z" fill="#fff"/><path d="M7.429 16.275l.595.804-.595-.804zm33.142 0l-.595.804.595-.804zM39 15.111l-.595.804-.405-.3v-.504h1zm-7-5.185h1v1.985l-1.595-1.181.595-.804zm-5.617-4.161l.595-.804-.596.804zm-4.765 0l.595.803-.596-.803zM4 21.096a7 7 0 0 1 2.833-5.624l1.19 1.607A5 5 0 0 0 6 21.096H4zM4 39V21.096h2V39H4zm6 6a6 6 0 0 1-6-6h2a4 4 0 0 0 4 4v2zm28 0H10v-2h28v2zm6-6a6 6 0 0 1-6 6v-2a4 4 0 0 0 4-4h2zm0-17.904V39h-2V21.096h2zm-2.833-5.624A7 7 0 0 1 44 21.096h-2a5 5 0 0 0-2.024-4.017l1.19-1.607zm-1.572-1.165l1.572 1.165-1.19 1.607-1.572-1.164 1.19-1.607zM40 9v6.111h-2V9h2zm-2-2a2 2 0 0 1 2 2h-2V7zm-5 0h5v2h-5V7zm-2 2a2 2 0 0 1 2-2v2h-2zm0 .926V9h2v.926h-2zM26.978 4.96l5.617 4.161-1.19 1.607-5.618-4.16 1.19-1.608zm-5.956 0a5.003 5.003 0 0 1 5.956 0l-1.19 1.607a3.003 3.003 0 0 0-3.575 0l-1.19-1.607zM6.833 15.471l14.19-10.51 1.19 1.607-14.19 10.51-1.19-1.606z" fill="#1F1F1F" mask="url(#a)"/><path d="M26 29.21l.001-.15a2.127 2.127 0 0 1 2.06-2.059l.15-.001c.416 0 .623 0 .8.006A11.341 11.341 0 0 1 39.994 37.99c.005.175.005.383.005.8l-.001.15a2.127 2.127 0 0 1-2.06 2.059l-.15.001h-8.642c-.95 0-1.426 0-1.803-.15a2.127 2.127 0 0 1-1.195-1.194C26 39.28 26 38.804 26 37.853V29.21z" fill="#FFBB29"/><path d="M23 27l-1.16-1.079C17.72 22.104 15 19.586 15 16.496 15 13.978 16.936 12 19.4 12c1.392 0 2.728.662 3.6 1.708.872-1.046 2.208-1.708 3.6-1.708 2.464 0 4.4 1.978 4.4 4.496 0 3.09-2.72 5.608-6.84 9.433L23 27z" fill="#1B6EF3"/><rect x="5" y="28.517" width="12" height="19" rx="6" transform="rotate(-38.789 5 28.517)" fill="#198639"/><rect x="35" y="17" width="7.071" height="7.071" rx="2" transform="rotate(45 35 17)" fill="#DC362E"/></svg>