<svg width="72" height="72" viewBox="0 0 72 72" fill="none" xmlns="http://www.w3.org/2000/svg">
<g clip-path="url(#clip0_14_10945)">
<path d="M0 8C0 3.58 3.58 0 8 0H64C68.42 0 72 3.58 72 8V64C72 68.42 68.42 72 64 72H8C3.58 72 0 68.42 0 64V8Z" fill="#EAEAEA"/>
<path d="M60.3 30.91L49.5 33.31L47.5 24.31L58.3 21.91C59.1 21.71 60.1 22.11 60.5 22.91C60.9 23.51 61.1 24.51 61.5 25.91C61.9 27.31 61.9 28.31 61.9 28.91C61.9 29.91 61.3 30.71 60.3 30.91Z" fill="#4285F4"/>
<path d="M60.3 30.91L49.5 33.31L47.5 24.31L58.3 21.91C59.1 21.71 60.1 22.11 60.5 22.91C60.9 23.51 61.1 24.51 61.5 25.91C61.9 27.31 61.9 28.31 61.9 28.91C61.9 29.91 61.3 30.71 60.3 30.91Z" fill="url(#paint0_linear_14_10945)"/>
<path d="M33.1 57.51C33.3 59.51 31.9 61.51 29.7 61.91C27.7 62.31 26.1 61.31 25.7 61.11L21.5 42.31L32.1 39.91L33.1 57.51Z" fill="#4285F4"/>
<path d="M33.1 57.51C33.3 59.51 31.9 61.51 29.7 61.91C27.7 62.31 26.1 61.31 25.7 61.11L21.5 42.31L32.1 39.91L33.1 57.51Z" fill="url(#paint1_linear_14_10945)"/>
<path d="M50.5 10.71C50.5 10.51 50.3 10.71 50.5 10.71C50.3 10.71 50.3 10.71 50.5 10.71C48.7 11.71 45.7 12.91 43.9 13.71C42.9 14.11 42.3 14.91 42.1 16.11C40.7 16.91 39.3 17.51 38.3 18.11C35.1 19.51 33.5 20.11 32.1 20.51C29.5 21.31 26.3 21.91 25.5 22.11C25.3 22.11 25.1 22.11 24.9 22.31C21.5 23.11 18.9 25.71 17.7 28.91L13.9 29.71C11.9 30.11 10.5 32.31 11.1 34.31L12.5 40.71C12.9 42.71 15.1 44.11 17.1 43.71L20.7 42.91C23.1 45.31 26.5 46.51 29.9 46.11C30.1 46.11 30.3 46.11 30.5 46.11C32.7 45.51 35.1 44.91 37.9 44.51C39.7 44.31 41.1 44.11 44.3 43.91C45.3 43.91 46.5 43.91 47.9 43.91C48.3 44.71 49.3 45.31 50.3 45.31C52.3 45.31 55.5 45.31 57.7 45.51C55.1 33.71 52.7 22.11 50.5 10.71Z" fill="url(#paint2_linear_14_10945)"/>
<path d="M47.9 43.91L42.1 16.1C42.07 16.11 40.94 16.73 40.91 16.74L46.54 43.9C47 43.91 47.45 43.91 47.9 43.91Z" fill="white"/>
</g>
<defs>
<linearGradient id="paint0_linear_14_10945" x1="31.1403" y1="32.6041" x2="63.7201" y2="25.4547" gradientUnits="userSpaceOnUse">
<stop stop-color="#202124"/>
<stop offset="1" stop-color="#202124" stop-opacity="0"/>
</linearGradient>
<linearGradient id="paint1_linear_14_10945" x1="29.4064" y1="11.4764" x2="26.8982" y2="57.7388" gradientUnits="userSpaceOnUse">
<stop stop-color="#202124"/>
<stop offset="1" stop-color="#202124" stop-opacity="0"/>
</linearGradient>
<linearGradient id="paint2_linear_14_10945" x1="15.3472" y1="-33.2921" x2="39.1548" y2="53.6283" gradientUnits="userSpaceOnUse">
<stop stop-color="white"/>
<stop offset="0.837" stop-color="#4285F4"/>
</linearGradient>
<clipPath id="clip0_14_10945">
<rect width="72" height="72" fill="white"/>
</clipPath>
</defs>
</svg>
